<svg width="800px" height="800px" viewBox="0 0 100 100" xmlns="http://www.w3.org/2000/svg">
  <path fill="#94D137" d="M94.791,52.869c-9.972-22.342-48.887-20.406-54.745,4.042C36.808,70.708,49.014,82.884,61.987,84.9c5.602,1.138,11.399,0.462,16.843-1.106c3.269,1.266,6.181,3.316,9.349,4.838c-0.819-2.745-1.693-5.459-2.625-8.161C94.641,74.512,99.449,63.147,94.791,52.869zM62.989,54.899c-0.811,2.531-4.488,3.292-6.27,1.367c-1.965-1.782-1.2-5.505,1.378-6.301C60.947,48.761,64.239,52.05,62.989,54.899zM81.604,55.261c-0.996,2.272-4.429,2.802-6.117,1.044c-1.433-1.371-1.433-3.789-0.165-5.273C78.28,47.634,83.322,51.47,81.604,55.261z"/>
  <path fill="#94D137" d="M7.216,26.891c-8.017,12.807-2.706,28.4,9.563,36.224c-1.165,3.3-2.271,6.597-3.32,9.92c3.786-1.98,7.571-4.05,11.36-6.061c4.543,1.456,9.376,2.17,14.21,2.011c-1.281-3.661-1.573-7.629-0.99-11.458c2.552-14.923,18.794-23.355,32.963-22.072C64.615,7.197,21.85,3.104,7.216,26.891zM30.302,31.146c-0.668,3.242-5.012,4.807-7.556,2.632c-2.947-2.077-2.12-7.226,1.34-8.274C27.475,24.2,31.327,27.64,30.302,31.146zM53.826,30.199c0.031,3.731-4.95,6.061-7.746,3.529c-2.9-2.077-2.077-7.132,1.328-8.177C50.488,24.32,54.069,26.915,53.826,30.199z"/>
</svg>
