<svg width="16" height="16" viewBox="0 0 16 16" fill="none" xmlns="http://www.w3.org/2000/svg">
<g clip-path="url(#clip0_2435_4834)">
<path d="M5.17704 12.8494C3.21118 13.2336 1.64478 12.9609 1.0718 11.9682C0.49882 10.9755 1.04673 9.47929 2.36478 7.96818C1.04673 6.45706 0.498109 4.9616 1.0718 3.96818C1.64549 2.97475 3.22291 2.70115 5.19749 3.09102C5.84798 1.20995 6.8638 0.000175476 8.00495 0.000175476C9.14611 0.000175476 10.1614 1.20906 10.8119 3.08924C12.7829 2.70186 14.3539 2.97386 14.928 3.96835C15.502 4.96284 14.953 6.45724 13.635 7.96835C14.953 9.47946 15.5017 10.9749 14.928 11.9684C14.3543 12.9618 12.7936 13.2327 10.8323 12.8514C10.1827 14.7653 9.15802 16 8.00566 16C6.85331 16 5.82682 14.7643 5.17704 12.8494ZM6.1406 13.3682C6.36719 13.921 6.69649 14.4259 7.11109 14.8562C7.34203 15.1105 7.66241 15.2655 8.00513 15.2889C8.34771 15.2656 8.66797 15.1105 8.89882 14.8564C9.3136 14.4263 9.64293 13.9213 9.86931 13.3684C9.96412 13.1544 10.053 12.9292 10.136 12.6928C9.40586 12.4995 8.69183 12.2499 8.00033 11.9461C7.31177 12.2484 6.60093 12.4972 5.87411 12.6901C5.95648 12.9272 6.04537 13.1534 6.14078 13.3689L6.1406 13.3682ZM11.7166 12.266C12.3087 12.3463 12.9107 12.3135 13.4906 12.1694C13.8262 12.0966 14.1206 11.8968 14.3122 11.6117C14.4632 11.3033 14.4891 10.9484 14.3843 10.6213C14.2191 10.0471 13.9464 9.50941 13.5808 9.0368C13.4486 8.85499 13.3044 8.67306 13.1481 8.49102C12.6214 9.01946 12.0551 9.50681 11.454 9.9488C11.3732 10.6974 11.235 11.4388 11.0405 12.1662C11.2717 12.2095 11.4972 12.243 11.7168 12.2667L11.7166 12.266ZM2.41882 9.0368C2.05317 9.50941 1.7805 10.0471 1.61526 10.6213C1.51049 10.9484 1.53636 11.3033 1.68744 11.6117C1.87896 11.8968 2.17336 12.0966 2.50895 12.1694C3.08887 12.3135 3.69087 12.3463 4.283 12.266C4.50546 12.2423 4.73402 12.2085 4.96869 12.1648C4.77521 11.4407 4.63745 10.7028 4.5566 9.95769C3.95138 9.51329 3.38128 9.02295 2.85135 8.49102C2.69609 8.6733 2.55203 8.85546 2.41918 9.03751L2.41882 9.0368ZM9.29402 11.6907C9.65349 11.8169 10.0041 11.924 10.3459 12.0119C10.4356 11.6848 10.5144 11.3414 10.5822 10.9817C10.6121 10.8229 10.6394 10.6623 10.6643 10.5001C10.3791 10.6875 10.0835 10.8696 9.77758 11.0466C9.47606 11.2207 9.17455 11.3836 8.87304 11.5353C9.01372 11.59 9.15417 11.6421 9.29438 11.6914L9.29402 11.6907ZM5.42753 10.9819C5.49485 11.3401 5.57337 11.6827 5.66309 12.0096C6.00134 11.9221 6.34878 11.8159 6.7054 11.6908C6.8456 11.6415 6.98599 11.5897 7.12655 11.5355C6.82563 11.3839 6.52406 11.221 6.22184 11.0468C5.91962 10.8725 5.62789 10.6929 5.34664 10.5079C5.37153 10.6679 5.39843 10.8261 5.42735 10.9826L5.42753 10.9819ZM6.5774 10.4308C7.03965 10.6982 7.51425 10.9438 7.99962 11.1666C8.47583 10.9484 8.9499 10.7031 9.42184 10.4308C9.89592 10.1572 10.3482 9.86726 10.7788 9.56089C10.8256 9.05138 10.8499 8.52978 10.8499 7.99946C10.8499 7.44551 10.8242 6.90062 10.7731 6.36942C10.3454 6.06554 9.89503 5.77712 9.42202 5.50418C8.95126 5.23229 8.47719 4.98702 7.9998 4.76835C7.51446 4.99122 7.03987 5.23677 6.57758 5.50418C6.11002 5.77404 5.66344 6.05985 5.23784 6.3616C5.18629 6.89493 5.16015 7.44266 5.16015 7.99946C5.16015 8.5328 5.18398 9.05671 5.23126 9.56871C5.65829 9.87188 6.10718 10.1595 6.57793 10.4315L6.5774 10.4308ZM4.1278 8.70809C4.24181 8.80586 4.35808 8.90258 4.4766 8.99822C4.45858 8.67111 4.44946 8.33819 4.44922 7.99946C4.44922 7.6381 4.45965 7.28284 4.48051 6.93369C4.36069 7.03028 4.24318 7.128 4.12798 7.22684C3.8427 7.47182 3.57781 7.71869 3.33331 7.96746C3.57769 8.21624 3.8427 8.46329 4.12833 8.70862L4.1278 8.70809ZM11.5607 8C11.5607 8.33517 11.5517 8.66512 11.5337 8.98986C11.6484 8.89718 11.761 8.80344 11.8714 8.70862C12.1568 8.46364 12.4218 8.21677 12.6663 7.968C12.4221 7.71911 12.1572 7.47223 11.8714 7.22738C11.7598 7.13149 11.6459 7.03668 11.5298 6.94293C11.5504 7.28901 11.5607 7.64136 11.5607 8ZM13.1482 7.44444C13.3043 7.26252 13.4486 7.08059 13.581 6.89866C13.9466 6.42608 14.2193 5.88839 14.3845 5.31413C14.4893 4.98707 14.4634 4.63215 14.3123 4.32373C14.1208 4.0387 13.8264 3.83884 13.4908 3.76604C12.9109 3.62207 12.3089 3.58931 11.7168 3.66951C11.4916 3.69321 11.2605 3.72741 11.0234 3.77209C11.2209 4.49629 11.362 5.23467 11.4457 5.98062C12.0499 6.4242 12.6191 6.91359 13.1482 7.44444ZM2.50913 3.76586C2.17354 3.83867 1.87914 4.03852 1.68762 4.32355C1.53655 4.63198 1.51069 4.98689 1.61544 5.31395C1.78063 5.88821 2.05331 6.42591 2.419 6.89849C2.55115 7.08029 2.69538 7.26222 2.85171 7.44426C3.38395 6.91008 3.95668 6.41783 4.56478 5.97191C4.64846 5.22946 4.78914 4.49455 4.98558 3.77369C4.74534 3.72829 4.51121 3.69351 4.28318 3.66933C4.05378 3.64458 3.82324 3.63188 3.59251 3.63129C3.22685 3.625 2.86214 3.67031 2.50913 3.76586ZM9.77758 4.88889C10.0793 5.06311 10.3712 5.24284 10.6533 5.42809C10.6314 5.28989 10.6077 5.15295 10.5822 5.01724C10.5111 4.6362 10.4269 4.27301 10.3296 3.92764C9.99358 4.01475 9.64845 4.12041 9.2942 4.24462C9.15387 4.29392 9.01343 4.34572 8.87286 4.4C9.17414 4.55182 9.47577 4.71478 9.77775 4.88889H9.77758ZM5.42789 5.01724C5.40288 5.15046 5.37959 5.28486 5.35802 5.42044C5.6363 5.23816 5.9243 5.06098 6.22202 4.88889C6.52389 4.71466 6.82552 4.5517 7.12691 4.4C6.98635 4.34572 6.8459 4.29392 6.70558 4.24462C6.35535 4.1216 6.01337 4.01671 5.67962 3.92995C5.58338 4.27425 5.49929 4.63674 5.42735 5.01742L5.42789 5.01724ZM7.99998 3.9904C8.68519 3.68965 9.39244 3.44187 10.1155 3.24924C10.0391 3.03413 9.95719 2.82838 9.86984 2.632C9.64353 2.079 9.31419 1.57404 8.89935 1.144C8.66842 0.889561 8.34795 0.734421 8.00513 0.711109C7.66246 0.734565 7.34214 0.889689 7.11126 1.144C6.6966 1.57418 6.36728 2.0791 6.14078 2.632C6.05331 2.82886 5.97118 3.03543 5.89438 3.25173C6.614 3.44406 7.31791 3.69099 7.99998 3.9904Z" fill="black"/>
</g>
<defs>
<clipPath id="clip0_2435_4834">
<rect width="16" height="16" fill="white"/>
</clipPath>
</defs>
</svg>
